<?xml version="1.0" standalone="no"?><!DOCTYPE svg PUBLIC "-//W3C//DTD SVG 1.1//EN" "http://www.w3.org/Graphics/SVG/1.1/DTD/svg11.dtd"><svg t="1760344531009" class="icon" viewBox="0 0 1031 1024" version="1.1" xmlns="http://www.w3.org/2000/svg" p-id="30055" xmlns:xlink="http://www.w3.org/1999/xlink" width="201.3671875" height="200"><path d="M881.110189 0H150.323385A150.323385 150.323385 0 0 0 0 150.323385v544.322953a150.323385 150.323385 0 0 0 150.323385 150.323385h730.786804A150.323385 150.323385 0 0 0 1031.433574 694.646338V150.323385A150.323385 150.323385 0 0 0 881.110189 0zM950.852826 694.646338a69.823218 69.823218 0 0 1-69.742637 69.742637H150.323385A69.823218 69.823218 0 0 1 80.580748 694.646338V150.323385A69.823218 69.823218 0 0 1 150.323385 80.580748h730.786804A69.823218 69.823218 0 0 1 950.852826 150.323385zM989.128681 943.419252H42.304893a40.290374 40.290374 0 0 0 0 80.580748h946.823788a40.290374 40.290374 0 0 0 0-80.580748z" fill="#ffffff" p-id="30056"></path><path d="M248.269284 598.855974a40.290374 40.290374 0 0 1-28.102535-69.158427l145.045346-141.016309a40.290374 40.290374 0 0 1 52.699809-3.001633l136.302335 105.137731 198.430092-230.642246a40.290374 40.290374 0 0 1 61.080207 52.558793L590.37485 572.264327a40.290374 40.290374 0 0 1-55.157522 5.620507l-138.880919-107.132104-119.984734 116.701068a40.109067 40.109067 0 0 1-28.082391 11.402176z" fill="#ffffff" p-id="30057"></path></svg>